<?xml version="1.0" standalone="no"?>
<!DOCTYPE svg PUBLIC "-//W3C//DTD SVG 20010904//EN"
 "http://www.w3.org/TR/2001/REC-SVG-20010904/DTD/svg10.dtd">
<svg version="1.0" xmlns="http://www.w3.org/2000/svg"
 width="300.000000pt" height="301.000000pt" viewBox="0 0 300.000000 301.000000"
 preserveAspectRatio="xMidYMid meet">
<metadata>
Created by potrace 1.10, written by Peter Selinger 2001-2011
</metadata>
<g transform="translate(0.000000,301.000000) scale(0.100000,-0.100000)"
fill="#000000" stroke="none">
<path d="M1259 2985 c-120 -19 -197 -40 -314 -86 -334 -130 -603 -372 -771
-692 -95 -183 -169 -450 -162 -584 l4 -58 8 53 c5 28 13 52 18 52 5 0 7 4 4 8
-2 4 -1 14 3 21 5 7 14 -35 21 -96 7 -59 17 -119 21 -133 6 -22 7 -21 8 10 0
19 -6 80 -13 135 -12 91 -12 108 6 194 10 52 33 130 49 173 22 57 28 82 20 92
-7 9 -6 18 5 34 8 12 18 22 22 22 4 0 8 -44 9 -97 0 -98 27 -278 43 -298 5 -6
-4 -36 -23 -75 -55 -111 -88 -191 -84 -203 2 -7 11 4 19 23 29 66 30 8 2 -101
-14 -57 -30 -121 -34 -142 -4 -22 -15 -46 -24 -55 -15 -15 -18 -15 -26 -2 -5
8 -12 40 -15 70 -4 30 -14 78 -23 105 l-17 50 -3 -42 c-12 -163 108 -503 250
-711 67 -97 272 -310 307 -319 14 -3 71 -21 126 -39 55 -18 129 -38 165 -45
52 -9 73 -19 105 -49 22 -20 66 -56 98 -80 31 -23 57 -47 57 -52 0 -5 -3 -8
-7 -6 -33 16 -73 33 -168 72 -60 25 -161 75 -224 111 -63 36 -116 64 -118 61
-2 -2 33 -29 79 -59 183 -123 458 -226 621 -233 56 -2 86 0 82 6 -4 6 40 9
119 9 70 -1 123 -5 120 -10 -8 -14 87 -11 163 5 91 20 232 67 317 106 84 39
222 120 256 150 21 18 17 17 -20 -5 -143 -83 -480 -234 -480 -215 0 4 52 46
116 94 78 58 124 86 142 86 15 0 99 24 187 54 l160 55 105 109 c120 124 199
236 275 390 91 185 132 323 140 467 l5 80 -20 -60 c-10 -33 -24 -79 -30 -103
-9 -36 -14 -41 -25 -32 -8 7 -17 28 -21 49 -7 40 -45 173 -105 359 l-39 123
15 67 c8 37 19 134 25 216 6 82 12 152 15 154 4 4 47 -83 66 -133 26 -70 26
-69 48 -150 11 -38 20 -82 20 -98 1 -15 5 -35 10 -45 5 -9 16 -42 24 -72 l15
-55 1 58 c2 128 -60 341 -150 519 -163 318 -349 507 -648 657 -135 68 -281
116 -412 135 -130 19 -399 20 -520 1z m486 -61 c50 -9 94 -20 98 -24 4 -4 -30
-14 -75 -23 -46 -9 -122 -30 -170 -45 l-87 -29 -118 38 c-65 21 -137 43 -161
49 -23 6 -40 14 -38 19 3 4 51 13 108 20 57 7 108 15 113 17 22 9 246 -6 330
-22z m-480 -68 c66 -20 146 -46 178 -58 l57 -20 0 -168 0 -168 -107 -51 c-58
-28 -143 -76 -188 -106 -87 -57 -226 -196 -309 -305 -45 -61 -52 -66 -103 -76
-31 -6 -88 -9 -129 -6 -65 4 -80 1 -126 -21 -31 -16 -62 -40 -74 -59 -18 -27
-35 -37 -99 -56 -57 -17 -80 -20 -85 -12 -13 21 -31 150 -40 285 l-9 129 41
71 c174 298 454 529 778 639 41 14 80 24 85 22 6 -2 64 -20 130 -40z m758 -6
c168 -67 359 -187 478 -301 70 -68 153 -180 216 -289 l48 -85 -12 -163 c-15
-208 -28 -276 -51 -267 -10 4 -52 16 -94 27 l-78 20 0 64 0 64 -70 0 -70 0 0
-30 c0 -35 1 -35 -64 -15 -27 8 -73 15 -102 15 -48 0 -53 2 -71 33 -11 17 -56
77 -100 132 -126 157 -227 236 -420 333 l-113 56 0 167 c0 149 2 168 18 174
23 10 353 103 370 104 7 1 58 -17 115 -39z m-454 -467 c71 -35 222 -123 239
-140 7 -7 18 -13 23 -13 11 0 166 -156 194 -195 11 -16 26 -34 33 -42 25 -25
82 -112 82 -126 0 -7 -5 -18 -10 -23 -6 -6 -13 -23 -16 -39 -3 -15 -9 -36 -14
-46 -6 -10 -10 -27 -10 -38 0 -27 -12 -27 -28 0 -20 32 -90 59 -154 59 -63 0
-168 -36 -168 -58 0 -16 28 -71 46 -92 12 -14 10 -18 -15 -33 -18 -10 -32 -31
-40 -57 -33 -111 42 -190 169 -177 l60 7 -21 -41 c-11 -22 -21 -53 -22 -67 -3
-26 -5 -27 -54 -24 -57 4 -106 -15 -123 -49 -11 -19 -13 -19 -51 15 -33 30
-46 36 -84 36 -56 0 -115 -23 -115 -45 0 -9 6 -28 14 -43 13 -25 12 -30 -10
-55 l-24 -28 0 51 c0 46 -4 56 -35 87 -35 35 -37 36 -95 30 l-60 -7 0 259 c0
143 -3 266 -6 275 -7 19 -120 23 -126 5 -3 -9 -9 -9 -25 0 -34 17 -133 13
-172 -8 l-35 -19 -24 74 -25 74 42 49 c22 27 41 53 41 56 0 24 189 205 273
261 66 44 262 152 281 153 5 1 34 -11 65 -26z m-701 -582 l31 -88 -19 -39
c-11 -21 -20 -54 -20 -74 l0 -35 -18 34 c-24 48 -59 71 -155 102 -53 17 -83
32 -85 43 -6 28 71 25 129 -5 21 -10 41 -19 44 -19 11 0 65 84 65 101 0 11
-14 26 -32 35 -30 16 -31 18 -13 25 37 14 43 9 73 -80z m1642 -161 l0 -250
-41 0 c-32 0 -42 4 -46 20 -7 25 -7 25 -43 -1 -38 -28 -122 -23 -169 10 -94
67 -94 250 0 309 68 41 135 37 188 -11 l24 -22 -7 98 -7 97 50 0 51 0 0 -250z
m-1742 210 c23 -11 42 -24 42 -30 0 -9 -12 -32 -36 -68 -1 -2 -14 4 -27 13
-33 21 -127 31 -155 16 -24 -13 -30 -53 -9 -68 6 -6 44 -20 82 -33 138 -44
165 -68 165 -147 0 -127 -165 -183 -323 -110 l-59 27 23 37 c12 21 23 39 24
40 0 1 23 -9 50 -22 63 -32 146 -34 175 -5 11 11 20 25 20 30 0 23 -43 50
-112 70 -121 36 -158 69 -158 142 0 65 49 109 145 132 33 7 107 -4 153 -24z
m1552 2 l65 -17 3 -39 c3 -34 1 -38 -15 -30 -10 4 -43 9 -73 11 -47 4 -61 0
-97 -23 -129 -85 -119 -302 17 -372 37 -19 54 -22 100 -17 30 3 90 7 133 8
l79 2 -2 196 -1 196 93 -25 c51 -13 96 -29 100 -35 9 -15 73 -213 113 -354
l33 -113 -77 -74 c-101 -99 -206 -180 -359 -280 -133 -87 -272 -166 -290 -166
-10 0 -73 50 -167 133 l-40 35 21 24 c34 36 44 63 45 115 1 26 4 39 6 28 21
-80 124 -119 209 -79 37 18 43 38 17 66 -14 16 -14 18 -1 18 28 0 40 27 33 72
-21 122 -195 146 -246 34 l-19 -41 0 53 0 52 -34 0 -34 0 28 68 29 67 55 3 56
3 0 147 c0 145 0 148 37 250 l37 102 41 -1 c22 -1 69 -8 105 -17z m-1873 -126
c1 -47 28 -93 66 -112 17 -9 68 -29 111 -44 44 -14 82 -32 84 -38 5 -17 -48
-35 -83 -28 -16 4 -54 18 -84 33 -52 25 -55 25 -65 8 -6 -9 -21 -33 -34 -53
-13 -19 -21 -40 -18 -47 9 -25 132 -77 192 -82 122 -11 210 38 239 132 5 16 9
13 24 -21 21 -46 80 -99 120 -107 21 -5 29 -16 44 -63 19 -60 14 -73 -25 -74
-28 0 -68 -22 -68 -37 0 -8 7 -27 15 -42 13 -26 13 -30 -5 -46 -20 -18 -26
-66 -14 -100 12 -30 62 -48 120 -40 30 3 59 3 65 0 6 -5 -16 -32 -58 -70 -95
-87 -200 -175 -208 -175 -11 0 -221 128 -330 201 -105 70 -233 169 -330 256
l-58 53 47 167 c25 93 57 202 69 243 l23 74 70 22 c91 29 90 29 91 -10z m652
18 c22 -8 42 -22 45 -30 10 -25 29 -16 22 11 -6 24 -4 25 39 25 l45 0 0 -244
0 -244 -45 -4 -45 -3 0 93 0 94 -31 -26 c-56 -47 -147 -32 -203 34 -80 96 -40
267 70 300 43 12 60 12 103 -6z m901 -12 c58 -31 70 -68 70 -214 l0 -128 -40
0 c-33 0 -40 3 -40 20 0 20 0 20 -32 0 -22 -13 -51 -20 -87 -20 -47 0 -57 4
-87 34 -39 39 -45 80 -17 127 22 37 61 52 138 53 35 1 67 4 71 8 3 4 -1 19
-10 32 -21 33 -72 42 -121 22 -20 -9 -39 -16 -41 -16 -8 0 -35 62 -29 68 33
34 172 42 225 14z m-71 -91 c9 -6 -6 -10 -47 -13 -58 -3 -71 4 -27 15 33 8 59
7 74 -2z m-761 -409 l32 -3 -1 -92 -2 -92 -8 64 c-8 65 -38 113 -79 126 -14 5
-59 111 -49 118 2 2 18 7 34 13 l30 10 5 -71 5 -70 33 -3z m470 -28 c50 -19
62 -47 62 -139 0 -73 -1 -75 -25 -75 -14 0 -25 4 -25 9 0 5 -18 3 -40 -5 -81
-28 -141 35 -92 96 13 17 33 24 77 29 l60 6 -23 23 c-24 24 -51 26 -93 8 -12
-5 -18 -1 -22 13 -6 24 3 31 47 42 17 4 32 7 33 8 2 1 20 -6 41 -15z m247 0
c19 -10 31 -11 33 -5 2 6 15 11 28 11 24 0 24 0 24 -114 0 -63 -4 -126 -10
-140 -19 -50 -110 -72 -170 -41 -32 17 -35 22 -20 45 8 12 13 13 30 3 49 -31
120 -5 120 44 0 23 0 23 -32 7 -44 -23 -101 -5 -128 39 -36 58 -19 120 40 149
43 22 47 22 85 2z m988 -131 c-20 -61 -24 -86 -16 -91 8 -5 3 -24 -18 -65 -16
-31 -26 -57 -23 -57 3 0 -4 -12 -15 -26 -12 -15 -21 -31 -21 -35 0 -5 -16 -31
-35 -57 -19 -27 -33 -51 -31 -53 11 -11 -164 -213 -240 -276 -64 -54 -227
-118 -357 -140 -25 -4 -27 -2 -22 19 31 136 55 241 61 278 4 25 9 48 10 53 1
4 2 22 3 40 1 31 6 36 64 65 139 70 377 234 540 372 36 31 37 31 38 8 1 -27 5
-77 8 -98 4 -34 19 17 25 89 4 40 12 85 18 100 l10 26 14 -34 c13 -31 12 -40
-13 -118z m-1751 123 c27 -20 38 -61 38 -137 0 -67 -1 -69 -25 -69 -14 0 -25
4 -25 9 0 6 -16 3 -36 -5 -57 -24 -114 5 -114 58 0 38 50 70 103 66 29 -3 37
0 37 13 0 36 -47 48 -102 25 -25 -11 -29 26 -3 41 27 16 106 16 127 -1z m158
-3 c0 -15 1 -15 18 0 20 19 83 23 112 7 26 -14 40 -63 40 -141 l0 -69 -30 0
-30 0 0 74 c0 82 -11 100 -57 94 -36 -4 -53 -38 -53 -110 0 -55 -1 -58 -24
-58 -25 0 -25 1 -28 110 l-3 110 28 0 c18 0 27 -5 27 -17z m922 -3 c27 -21 52
-72 46 -92 -3 -8 -28 -11 -86 -10 -67 2 -82 0 -82 -12 0 -27 45 -49 88 -41 29
4 42 2 51 -9 11 -13 9 -17 -15 -27 -74 -29 -144 -5 -171 59 -19 46 -5 101 34
131 34 28 101 28 135 1z m-2048 -67 c4 -43 9 -93 13 -111 9 -54 23 -17 23 62
l0 68 35 -26 c20 -15 46 -37 59 -49 13 -12 45 -38 72 -57 26 -19 52 -39 58
-45 20 -18 149 -102 259 -169 168 -101 155 -86 177 -206 11 -58 29 -145 40
-194 29 -128 29 -125 -27 -115 -75 14 -173 41 -179 51 -3 4 -14 8 -25 8 -63 0
-179 96 -309 255 -105 130 -204 309 -202 368 1 17 -8 65 -19 105 -18 63 -18
77 -7 102 7 17 16 30 19 30 3 0 9 -35 13 -77z m1206 -29 c0 -31 -3 -35 -22
-32 -29 4 -37 46 -12 65 24 17 34 8 34 -33z m390 -126 c-11 -18 -20 -38 -20
-44 0 -21 100 -57 144 -51 38 5 43 3 114 -64 41 -38 92 -82 113 -97 21 -15 39
-34 39 -42 0 -45 -74 -379 -87 -390 -15 -13 -209 -148 -248 -173 -23 -15 -67
-30 -105 -36 -86 -14 -286 -14 -391 0 -90 13 -70 1 -280 156 l-86 63 -37 177
c-20 98 -39 187 -41 198 -2 15 15 34 68 75 39 30 110 93 159 139 81 77 88 86
88 122 0 51 16 50 24 -1 l6 -40 50 0 50 0 0 40 c0 38 2 40 30 40 28 0 30 -2
30 -40 l0 -40 50 0 50 0 1 43 0 42 16 -32 c21 -41 50 -51 151 -52 l82 0 0 47
0 47 25 -27 25 -27 -20 -33z"/>
<path d="M1316 1765 c-11 -29 -5 -269 7 -304 7 -19 29 -48 50 -65 35 -28 45
-31 105 -30 37 1 101 2 143 2 l76 1 5 43 c7 61 2 344 -6 357 -4 6 -34 11 -67
11 -70 0 -71 -1 -74 -98 -4 -138 -5 -151 -21 -167 -14 -14 -47 -13 -64 2 -3 3
-7 62 -10 131 l-5 127 -66 3 c-54 2 -68 0 -73 -13z m114 -130 c0 -111 1 -117
26 -142 20 -20 31 -24 57 -19 57 11 67 34 67 162 l0 114 50 0 50 0 0 -180 0
-180 -45 0 c-38 0 -45 3 -45 20 0 11 -3 20 -6 20 -3 0 -17 -9 -31 -20 -31 -24
-101 -27 -144 -5 -58 30 -69 65 -69 213 l0 132 45 0 45 0 0 -115z"/>
<path d="M2295 1671 c-35 -15 -57 -49 -62 -95 -5 -40 -2 -48 25 -76 39 -38 88
-41 129 -6 24 21 28 32 28 75 0 41 -5 55 -25 75 -29 28 -66 39 -95 27z m74
-47 c25 -32 27 -81 4 -106 -20 -22 -70 -23 -95 -1 -25 23 -24 81 4 110 28 30
62 29 87 -3z"/>
<path d="M2343 1233 l-63 -4 0 -135 0 -135 48 3 47 3 3 70 c3 76 13 95 48 95
22 0 24 4 24 55 0 51 -2 55 -22 53 -13 -1 -51 -3 -85 -5z m7 -39 c0 -14 2 -14
22 0 33 23 58 20 58 -7 0 -16 -9 -26 -30 -34 -38 -14 -54 -54 -45 -115 l6 -48
-31 0 -30 0 0 110 0 110 25 0 c16 0 25 -6 25 -16z"/>
<path d="M564 1295 c-3 -6 -3 -83 -2 -170 l3 -160 47 -3 47 -3 3 63 3 63 23
-42 c19 -36 27 -43 52 -43 24 0 34 8 57 48 l28 47 3 -67 3 -68 44 0 45 0 0
169 0 169 -42 4 c-45 4 -34 15 -112 -116 l-23 -38 -44 75 c-43 74 -45 75 -88
79 -24 2 -45 -1 -47 -7z m122 -100 c27 -47 52 -85 55 -85 7 0 84 124 95 153 4
11 17 17 35 17 l29 0 0 -145 0 -145 -25 0 c-24 0 -24 2 -27 93 l-3 92 -45 -77
c-28 -48 -51 -77 -60 -75 -8 1 -33 35 -55 74 -22 40 -42 73 -45 73 -3 0 -3
-40 -2 -90 l4 -90 -29 0 -28 0 0 145 0 145 26 0 c23 0 34 -12 75 -85z"/>
<path d="M1005 1645 c-37 -37 -35 -106 4 -146 37 -36 79 -38 118 -5 24 21 28
32 28 74 0 40 -5 56 -24 76 -33 35 -92 36 -126 1z m106 -21 c21 -25 17 -93 -6
-110 -26 -19 -52 -17 -75 6 -24 24 -27 82 -4 104 20 21 68 20 85 0z"/>
<path d="M1858 1539 c-22 -12 -23 -52 -2 -73 38 -39 124 2 124 59 0 24 -3 25
-52 25 -29 0 -61 -5 -70 -11z m82 -34 c0 -18 -48 -31 -62 -17 -16 16 0 32 33
32 19 0 29 -5 29 -15z"/>
<path d="M1556 1064 c-8 -22 -8 -22 13 -34 28 -14 71 4 71 30 0 17 -7 20 -39
20 -26 0 -41 -5 -45 -16z"/>
<path d="M1816 1154 c-9 -8 -16 -28 -16 -44 0 -36 23 -60 59 -60 55 0 80 61
41 100 -24 24 -63 26 -84 4z m74 -44 c0 -21 -30 -42 -46 -32 -36 24 -11 82 27
62 10 -6 19 -19 19 -30z"/>
<path d="M1017 1073 c-13 -12 -7 -32 12 -43 28 -14 71 4 71 30 0 17 -7 20 -38
20 -21 0 -42 -3 -45 -7z"/>
<path d="M2096 1154 c-27 -26 -18 -34 39 -34 42 0 55 4 55 15 0 32 -67 46 -94
19z"/>
</g>
</svg>
