<?xml version="1.0" standalone="no"?>
<!DOCTYPE svg PUBLIC "-//W3C//DTD SVG 20010904//EN"
        "http://www.w3.org/TR/2001/REC-SVG-20010904/DTD/svg10.dtd">
<svg version="1.0" xmlns="http://www.w3.org/2000/svg"
     width="522.000000pt" height="524.000000pt" viewBox="0 0 522.000000 524.000000"
     preserveAspectRatio="xMidYMid meet">

    <g transform="translate(0.000000,524.000000) scale(0.100000,-0.100000)"
       fill="#000000" stroke="none">
        <path d="M2350 5219 c-369 -48 -626 -121 -896 -255 -262 -130 -452 -264 -657
-463 -235 -228 -361 -400 -508 -693 -126 -252 -209 -505 -259 -793 -45 -258
-36 -644 21 -925 84 -413 273 -807 546 -1137 112 -135 344 -361 380 -369 15
-3 107 -32 203 -65 174 -58 329 -98 384 -99 20 0 49 -19 107 -69 43 -38 124
-104 179 -146 75 -57 101 -82 97 -95 -3 -11 5 -23 22 -32 31 -19 193 -54 311
-68 130 -15 556 -12 679 5 131 19 267 51 293 69 20 14 20 14 -3 18 -20 2 -6
16 85 83 59 44 150 113 202 153 52 39 101 72 109 72 66 0 244 52 489 143 122
46 147 59 210 113 114 97 287 293 393 444 96 137 160 250 248 439 112 239 170
427 212 676 26 159 26 652 0 808 -22 130 -66 313 -102 421 -136 415 -447 897
-745 1154 -245 211 -586 402 -909 508 -123 41 -309 79 -481 99 -136 16 -500
18 -610 4z m-242 -220 c205 -61 443 -139 475 -155 l27 -15 0 -203 c0 -111 -3
-244 -6 -293 l-7 -91 -116 -52 c-140 -64 -316 -163 -425 -238 -144 -100 -416
-385 -545 -569 -27 -40 -42 -53 -61 -53 -14 0 -59 -9 -100 -19 -62 -16 -85
-17 -130 -9 -76 14 -194 4 -264 -22 -66 -25 -129 -77 -155 -129 -17 -32 -27
-37 -160 -82 -126 -42 -142 -45 -150 -30 -28 54 -64 309 -80 576 l-9 150 61
105 c119 207 217 339 366 493 293 303 651 529 1026 647 50 16 96 29 103 29 7
1 74 -17 150 -40z m1320 -2 c48 -19 109 -42 135 -51 154 -57 389 -194 583
-339 268 -201 423 -383 606 -713 l57 -102 -10 -163 c-20 -358 -36 -496 -64
-566 l-13 -31 -99 28 c-54 15 -124 35 -155 44 l-58 17 0 104 0 105 -125 0
c-92 0 -125 -3 -127 -12 0 -7 -2 -25 -3 -41 -1 -15 -4 -29 -6 -32 -3 -2 -56 8
-119 22 -63 14 -146 25 -185 26 l-70 0 -35 58 c-107 178 -364 463 -524 583
-125 94 -393 244 -533 298 l-43 16 1 259 c0 142 3 276 7 298 l7 39 90 28 c50
16 196 56 325 89 128 33 236 62 239 64 9 10 34 4 119 -28z m932 -2127 c0 -231
1 -423 3 -427 1 -5 -31 -9 -71 -11 l-72 -3 -6 31 c-4 16 -9 30 -11 30 -3 0
-25 -15 -50 -32 -41 -30 -53 -33 -128 -36 -72 -4 -88 -1 -133 22 -62 32 -114
83 -144 145 -32 65 -33 233 -2 302 61 132 228 204 350 150 27 -12 61 -34 77
-48 l27 -27 0 162 0 162 80 0 80 0 0 -420z m-2849 257 l50 -148 -25 -52 c-14
-29 -28 -68 -32 -87 -14 -90 -13 -88 -45 -32 -37 66 -94 99 -256 152 -141 45
-163 55 -163 75 0 47 122 44 229 -5 40 -18 77 -30 88 -26 18 6 102 125 111
158 6 25 -13 45 -72 76 -48 24 -50 26 -26 33 14 4 40 7 58 6 l32 -2 51 -148z
m-296 132 c53 -10 156 -51 194 -77 11 -8 7 -21 -24 -72 -20 -34 -42 -59 -49
-56 -119 53 -144 60 -213 61 -89 0 -126 -22 -131 -77 -4 -51 24 -69 181 -119
73 -22 148 -49 168 -60 52 -26 86 -71 99 -132 27 -117 -30 -228 -142 -277 -72
-32 -229 -40 -314 -15 -61 17 -194 84 -194 96 0 10 71 129 77 129 2 0 23 -11
46 -24 62 -36 160 -66 215 -66 63 0 134 35 147 73 21 63 -25 94 -220 152 -164
48 -234 116 -235 226 0 125 70 203 212 234 79 17 110 18 183 4z m2820 -36
l110 -28 3 -62 c2 -35 1 -63 -1 -63 -3 0 -22 7 -43 16 -100 42 -245 6 -331
-82 -74 -76 -97 -141 -97 -269 0 -88 4 -107 29 -163 72 -160 257 -240 420
-183 47 17 56 17 66 5 9 -11 35 -14 113 -12 l101 3 3 343 c1 188 5 342 7 342
23 0 303 -75 312 -84 18 -17 121 -334 218 -674 l44 -153 -47 -50 c-65 -70
-249 -234 -363 -322 -221 -171 -451 -321 -714 -466 -113 -63 -133 -71 -154
-61 -32 14 -147 110 -251 207 l-85 80 37 41 c44 49 68 122 68 206 l0 60 25
-51 c62 -124 214 -166 359 -100 65 30 73 57 31 97 -32 30 -31 37 5 45 40 9 54
37 47 100 -14 137 -108 212 -254 203 -57 -3 -76 -9 -116 -36 -29 -21 -56 -51
-72 -80 l-24 -47 -1 76 0 77 -31 6 c-17 3 -42 6 -55 6 -13 0 -24 1 -24 3 0 1
20 52 45 112 l45 110 92 5 93 5 5 260 5 260 54 145 c29 80 59 160 67 179 l14
34 68 -6 c37 -3 117 -19 177 -34z m-3260 -182 c-9 -29 14 -124 40 -163 36 -55
93 -86 241 -134 72 -23 141 -47 152 -53 30 -16 28 -49 -4 -61 -69 -27 -204 2
-302 64 -49 31 -63 27 -86 -21 -10 -21 -34 -61 -53 -90 l-36 -54 24 -25 c31
-34 190 -109 257 -123 157 -32 336 11 419 100 12 13 34 51 49 84 l27 59 13
-37 c31 -90 134 -186 223 -209 35 -9 37 -12 73 -114 26 -74 34 -106 25 -109
-7 -2 -29 -6 -50 -10 -52 -8 -126 -41 -133 -59 -7 -18 35 -116 49 -116 6 0 -7
-18 -28 -40 -38 -39 -40 -44 -40 -105 0 -59 2 -66 34 -99 19 -20 50 -41 69
-47 29 -9 99 -9 147 1 31 7 85 -1 85 -13 0 -22 -246 -246 -406 -371 l-62 -47
-192 116 c-316 190 -480 300 -685 459 -150 117 -365 308 -365 325 0 19 222
787 235 811 11 22 31 32 102 54 48 15 106 33 128 40 46 15 58 12 50 -13z
m1107 9 c20 -6 60 -26 88 -45 29 -19 54 -35 56 -35 2 0 4 18 4 40 l0 40 70 0
70 0 1 -72 c1 -75 1 -308 0 -615 l-1 -173 -75 0 -75 0 0 150 c0 83 -3 150 -6
150 -3 0 -19 -9 -34 -20 -115 -82 -274 -64 -365 42 -76 89 -98 244 -54 365 49
131 192 208 321 173z m608 -187 c1 -252 18 -294 127 -296 51 0 88 22 118 74
18 30 20 56 23 222 l4 188 76 -3 77 -3 3 -308 2 -308 -77 3 c-77 3 -78 3 -81
31 -4 33 -13 34 -38 6 -49 -56 -183 -67 -270 -24 -55 27 -81 58 -107 123 -14
35 -17 80 -17 262 l0 220 80 0 80 0 0 -187z m976 158 c68 -32 106 -74 123
-136 6 -23 11 -129 11 -247 l0 -208 -70 0 -70 0 0 30 0 29 -47 -29 c-60 -37
-131 -51 -200 -40 -62 10 -79 19 -115 57 -35 37 -48 73 -48 134 0 60 19 99 62
133 46 34 99 46 208 46 114 0 124 5 113 51 -19 72 -150 99 -255 52 l-47 -21
-26 55 c-18 35 -24 58 -18 64 27 27 151 58 233 58 74 1 93 -3 146 -28z m-1543
-925 c18 -7 43 -26 57 -40 24 -27 25 -33 28 -182 l3 -154 -39 0 c-27 0 -42 5
-46 15 -5 14 -9 14 -34 1 -50 -26 -99 -30 -147 -11 -53 20 -75 47 -75 92 0 83
56 124 174 127 80 3 91 14 57 58 -27 34 -77 43 -136 23 -26 -9 -48 -15 -50
-13 -2 2 -6 15 -10 31 -7 25 -3 29 36 47 52 23 135 26 182 6z m307 -11 l0 -24
36 24 c47 32 133 35 181 5 57 -35 67 -68 68 -225 l0 -140 -47 -3 -46 -3 -4
129 c-4 154 -12 172 -85 172 -34 0 -49 -6 -67 -25 -30 -32 -36 -64 -36 -182
l0 -94 -47 3 -48 3 -3 180 c-1 98 0 185 2 192 3 8 23 13 51 13 41 0 45 -2 45
-25z m633 11 c18 -7 43 -26 57 -40 23 -26 25 -37 30 -154 8 -178 7 -182 -41
-182 -28 0 -39 4 -39 15 0 19 -10 19 -35 1 -33 -22 -109 -29 -147 -13 -42 18
-78 61 -78 94 0 44 29 90 68 109 20 9 70 19 110 22 68 4 72 6 66 26 -12 42
-44 59 -104 53 -30 -3 -64 -8 -75 -12 -16 -5 -23 0 -32 25 -12 31 -11 32 30
51 50 22 143 25 190 5z m435 -6 c40 -24 38 -24 45 0 4 16 14 20 46 20 l41 0 2
-62 c0 -35 0 -128 -1 -208 -2 -128 -5 -150 -24 -185 -48 -87 -183 -117 -292
-64 -56 27 -63 43 -36 78 l18 24 45 -21 c72 -36 145 -23 182 30 14 20 23 88
12 88 -3 0 -21 -10 -41 -21 -46 -27 -141 -23 -183 8 -111 82 -105 259 10 316
47 23 135 22 176 -3z m532 -14 c48 -32 83 -98 78 -149 l-3 -32 -142 -3 c-155
-3 -162 -6 -122 -55 30 -39 89 -52 146 -33 44 15 46 15 64 -7 28 -33 23 -44
-28 -63 -91 -35 -202 -16 -255 43 -23 25 -48 98 -48 140 0 69 52 150 115 179
49 23 145 14 195 -20z m1206 -81 c-9 -42 -77 -228 -88 -240 -18 -18 11 277 32
330 l11 29 25 -44 c19 -32 24 -53 20 -75z m-4766 -80 c6 -82 13 -166 16 -185
9 -56 -9 -25 -34 58 -13 42 -31 105 -42 140 l-19 62 26 46 c14 25 29 42 34 37
4 -4 13 -75 19 -158z m2110 -170 l5 -60 87 -3 87 -3 3 63 3 63 16 -35 c33 -74
103 -108 191 -96 24 3 84 7 133 8 l90 3 3 63 c2 34 7 62 11 62 5 0 21 -16 35
-35 l27 -34 -31 -60 c-16 -33 -30 -67 -30 -76 0 -8 28 -29 63 -47 57 -30 70
-33 162 -34 l100 -1 40 -40 c60 -59 213 -192 283 -247 53 -40 62 -52 62 -79 0
-39 -47 -276 -97 -495 l-37 -162 -181 -128 c-322 -229 -318 -227 -442 -246
-226 -33 -485 -31 -747 8 -65 9 -90 18 -126 44 -25 18 -128 94 -230 168 -102
75 -192 143 -201 152 -15 15 -125 494 -148 640 l-8 53 41 31 c90 70 307 261
409 360 l107 104 0 57 c0 41 4 57 14 57 9 0 15 -18 19 -56 3 -31 7 -57 9 -59
2 -2 39 -4 83 -6 l80 -4 3 55 c4 69 15 82 66 78 l41 -3 5 -60z"/>
        <path d="M3995 2905 c-56 -20 -91 -63 -104 -127 -15 -75 -2 -124 47 -170 93
-86 230 -48 262 72 38 141 -78 268 -205 225z m114 -60 c59 -51 67 -152 15
-206 -23 -24 -36 -29 -76 -29 -38 0 -54 6 -79 28 -59 53 -47 169 23 212 44 27
80 25 117 -5z"/>
        <path d="M3973 2144 c-10 -4 -13 -59 -12 -223 0 -119 4 -222 8 -229 5 -9 31
-12 87 -10 l79 3 5 122 c6 138 12 152 77 162 l38 6 8 75 c10 101 9 103 -61 96
-66 -6 -56 -6 -147 -1 -38 2 -76 2 -82 -1z m125 -61 l3 -22 36 25 c20 13 46
24 59 24 22 0 24 -4 24 -50 0 -47 -2 -50 -26 -50 -71 0 -94 -45 -94 -185 l0
-106 -47 3 -48 3 -3 187 c-4 206 -7 198 63 195 23 -2 31 -7 33 -24z"/>
        <path d="M980 1975 l0 -295 85 0 85 0 0 103 c1 114 4 115 56 15 13 -26 33 -52
43 -58 28 -14 93 1 106 25 30 57 68 115 76 115 5 0 9 -42 9 -94 0 -52 3 -97 8
-99 7 -5 122 -11 150 -8 9 1 12 64 12 280 0 154 -3 286 -6 295 -5 13 -22 16
-78 16 l-71 0 -76 -127 c-41 -70 -79 -128 -85 -130 -5 -2 -22 18 -37 45 -15
26 -49 83 -75 127 l-47 80 -78 3 -77 3 0 -296z m218 103 c48 -82 90 -148 93
-148 6 0 97 149 165 268 15 26 25 32 50 32 67 0 64 13 64 -261 l0 -249 -45 0
-45 0 -1 113 c0 61 -4 132 -7 157 l-7 45 -75 -127 c-102 -174 -98 -174 -213
22 l-62 105 -3 -157 -3 -158 -44 0 -45 0 0 256 0 255 46 -3 46 -3 86 -147z"/>
        <path d="M1781 2892 c-22 -10 -44 -34 -58 -61 -80 -152 66 -330 206 -250 57
32 75 65 79 140 5 81 -15 129 -67 165 -43 29 -110 32 -160 6z"/>
        <path d="M3263 2689 c-51 -15 -76 -65 -57 -114 16 -41 118 -59 174 -30 38 20
62 66 58 113 l-3 37 -70 2 c-38 1 -84 -3 -102 -8z"/>
        <path d="M1803 1879 c-23 -7 -35 -17 -39 -34 -12 -49 38 -74 103 -52 33 10 38
17 44 50 4 24 2 37 -5 38 -6 0 -24 2 -41 4 -16 1 -45 -1 -62 -6z m47 -49 c0
-5 -2 -10 -4 -10 -3 0 -8 5 -11 10 -3 6 -1 10 4 10 6 0 11 -4 11 -10z"/>
        <path d="M2752 1883 c-32 -7 -56 -46 -43 -71 14 -27 52 -34 97 -19 32 10 39
18 45 47 4 19 7 36 5 37 -5 6 -84 11 -104 6z"/>
        <path d="M3155 2005 c-19 -19 -25 -35 -25 -70 0 -65 39 -105 102 -105 100 1
143 111 67 174 -42 36 -110 36 -144 1z m113 -31 c12 -8 22 -25 22 -36 0 -27
-37 -68 -61 -68 -44 0 -65 66 -32 102 20 22 42 23 71 2z"/>
        <path d="M3670 2027 c-26 -13 -52 -55 -44 -69 3 -4 45 -8 95 -8 81 0 89 2 89
19 0 26 -56 71 -88 71 -15 0 -38 -6 -52 -13z"/>
    </g>
</svg>
